<svg width="81" height="32" viewBox="0 0 81 32" fill="none" xmlns="http://www.w3.org/2000/svg">
<rect width="81" height="32" fill="#F5F5F5"/>
<g id="Day 02-Assignment with responsive design (More complex)(Design to Code)">
<path d="M-884.667 -1122C-884.667 -1123.1 -883.771 -1124 -882.667 -1124H3649.33C3650.44 -1124 3651.33 -1123.1 3651.33 -1122V3927C3651.33 3928.1 3650.44 3929 3649.33 3929H-882.667C-883.771 3929 -884.667 3928.1 -884.667 3927V-1122Z" fill="black"/>
<path d="M-882.667 -1123H3649.33V-1125H-882.667V-1123ZM3650.33 -1122V3927H3652.33V-1122H3650.33ZM3649.33 3928H-882.667V3930H3649.33V3928ZM-883.667 3927V-1122H-885.667V3927H-883.667ZM-882.667 3928C-883.219 3928 -883.667 3927.55 -883.667 3927H-885.667C-885.667 3928.66 -884.324 3930 -882.667 3930V3928ZM3650.33 3927C3650.33 3927.55 3649.89 3928 3649.33 3928V3930C3650.99 3930 3652.33 3928.66 3652.33 3927H3650.33ZM3649.33 -1123C3649.89 -1123 3650.33 -1122.55 3650.33 -1122H3652.33C3652.33 -1123.66 3650.99 -1125 3649.33 -1125V-1123ZM-882.667 -1125C-884.323 -1125 -885.667 -1123.66 -885.667 -1122H-883.667C-883.667 -1122.55 -883.219 -1123 -882.667 -1123V-1125Z" fill="white" fill-opacity="0.1"/>
<g id="Home Page" clip-path="url(#clip0_0_1)">
<rect width="1920" height="4362" transform="translate(-629.667 -901)" fill="white"/>
<g id="Group 29">
<g id="Rectangle 29">
<rect x="-629.667" y="-901" width="1920" height="961" fill="white"/>
<rect x="-629.667" y="-901" width="1920" height="961" fill="url(#paint0_linear_0_1)"/>
</g>
<g id="Group 28">
<g id="Mask group">
<mask id="mask0_0_1" style="mask-type:alpha" maskUnits="userSpaceOnUse" x="-630" y="-901" width="1921" height="961">
<g id="Rectangle 45">
<rect x="-629.667" y="-901" width="1920" height="961" fill="white"/>
<rect x="-629.667" y="-901" width="1920" height="961" fill="url(#paint1_linear_0_1)"/>
</g>
</mask>
<g mask="url(#mask0_0_1)">
<g id="Ellipse 226" filter="url(#filter0_f_0_1)">
<ellipse cx="-741.667" cy="-141.5" rx="400" ry="498.5" fill="#6158FF"/>
</g>
</g>
</g>
</g>
</g>
<g id="Group 31">
<rect id="Rectangle 30" x="-629.667" y="-24" width="1920" height="84" fill="white" fill-opacity="0.2"/>
<g id="Group 14">
<g id="Clip path group">
<mask id="mask1_0_1" style="mask-type:luminance" maskUnits="userSpaceOnUse" x="0" y="0" width="81" height="32">
<g id="b">
<path id="Vector" d="M0.728516 0V6.53322H5.1958V25.1096H0.850147V31.5641H16.3954V25.1096H11.9281V6.53322H16.2737V0H0.728516ZM44.9741 0.0787136V6.53322H49.4415V25.1096H45.0958V31.5641H56.1736V13.6048L62.7747 31.5578L62.9089 31.561L69.3915 13.6048V31.5641H80.5907V25.1096H76.1233V6.53322H80.4691V0.0787136H67.9841L62.8149 14.4746L57.5801 0.0787136H44.9741Z" fill="white"/>
<path id="a" d="M18.4766 0.079834V6.53434H22.9438V16.7671H40.1391V14.8049C40.1391 14.8049 41.5775 13.6996 42.0359 12.6508L42.9561 10.6156C42.9561 10.6156 43.3835 9.4765 43.3835 8.4585L43.1995 6.42336C43.1995 6.42336 42.9107 4.76541 42.4071 4.27227L40.6288 2.23399C40.6288 2.23399 38.3661 0.079834 35.3691 0.079834H18.4766ZM29.6757 6.53434H36.2238V12.5166H29.6757V6.53434Z" fill="white"/>
<path id="a_2" d="M18.4766 31.5642V25.1097H22.9438V14.8769H40.1391V16.8391C40.1391 16.8391 41.5775 17.9444 42.0359 18.9933L42.9561 21.0284C42.9561 21.0284 43.3835 22.1675 43.3835 23.1855L43.1995 25.2207C43.1995 25.2207 42.9107 26.8786 42.4071 27.3718L40.6288 29.4101C40.6288 29.4101 38.3661 31.5642 35.3691 31.5642H18.4766ZM29.6757 25.1097H36.2238V19.1275H29.6757V25.1097Z" fill="white"/>
</g>
</mask>
<g mask="url(#mask1_0_1)">
<g id="Vector_2">
<path d="M0.728516 1.15576H82.9872V5.34584H0.728516M0.728516 9.53592H78.5948V13.7268H0.728516V17.9161H78.5948V22.1054H0.728516M0.728516 26.2962H82.9872V30.4871H0.728516" fill="#B6B3EB"/>
<path d="M0.728516 1.15576H82.9872V5.34584H0.728516M0.728516 9.53592H78.5948V13.7268H0.728516V17.9161H78.5948V22.1054H0.728516M0.728516 26.2962H82.9872V30.4871H0.728516" stroke="#B6B3EB" stroke-width="25.2648"/>
</g>
</g>
</g>
</g>
</g>
</g>
</g>
<defs>
<filter id="filter0_f_0_1" x="-1725.67" y="-1224" width="1968" height="2165" filterUnits="userSpaceOnUse" color-interpolation-filters="sRGB">
<feFlood flood-opacity="0" result="BackgroundImageFix"/>
<feBlend mode="normal" in="SourceGraphic" in2="BackgroundImageFix" result="shape"/>
<feGaussianBlur stdDeviation="292" result="effect1_foregroundBlur_0_1"/>
</filter>
<linearGradient id="paint0_linear_0_1" x1="-629.667" y1="-901" x2="-82.8385" y2="-1411.34" gradientUnits="userSpaceOnUse">
<stop stop-color="#362FCC"/>
<stop offset="1" stop-color="#5D55FF"/>
</linearGradient>
<linearGradient id="paint1_linear_0_1" x1="-629.667" y1="-901" x2="-324.292" y2="-1501.08" gradientUnits="userSpaceOnUse">
<stop stop-color="#1B13A6"/>
<stop offset="1" stop-color="#443CDF"/>
</linearGradient>
<clipPath id="clip0_0_1">
<rect width="1920" height="4362" fill="white" transform="translate(-629.667 -901)"/>
</clipPath>
</defs>
</svg>
